<?xml version="1.0" standalone="no"?>
<!DOCTYPE svg PUBLIC "-//W3C//DTD SVG 20010904//EN"
 "http://www.w3.org/TR/2001/REC-SVG-20010904/DTD/svg10.dtd">
<svg version="1.0" xmlns="http://www.w3.org/2000/svg" width="32.000000pt" height="32.000000pt" viewBox="0 0 32.000000 32.000000" preserveAspectRatio="xMidYMid meet">

<g transform="translate(0.000000,32.000000) scale(0.100000,-0.100000)"
fill="#000000" stroke="none">
<path d="M63 296 c-4 -8 -17 -15 -28 -18 -19 -3 -20 -11 -20 -123 l0 -120 80
-1 80 0 -77 3 -78 4 0 84 0 85 140 0 140 0 0 -45 c0 -41 -2 -45 -18 -36 -9 5
-39 9 -65 9 -36 -1 -47 -5 -46 -17 0 -10 2 -12 6 -3 2 6 9 12 14 12 6 0 6 -8
-1 -19 -36 -68 46 -135 99 -82 17 17 19 33 18 132 -2 105 -4 114 -22 118 -11
2 -25 11 -32 20 -12 15 -14 15 -27 -1 -7 -10 -19 -18 -26 -18 -7 0 -19 8 -26
18 -13 16 -15 16 -28 0 -16 -22 -42 -23 -50 -3 -7 19 -23 19 -33 1z m27 -21
c0 -14 -4 -25 -10 -25 -5 0 -10 11 -10 25 0 14 5 25 10 25 6 0 10 -11 10 -25z
m80 0 c0 -14 -4 -25 -10 -25 -5 0 -10 11 -10 25 0 14 5 25 10 25 6 0 10 -11
10 -25z m80 0 c0 -14 -4 -25 -10 -25 -5 0 -10 11 -10 25 0 14 5 25 10 25 6 0
10 -11 10 -25z m-184 -22 c13 -17 15 -17 28 0 7 9 19 17 26 17 7 0 19 -8 26
-17 13 -17 15 -17 28 0 7 9 19 17 26 17 7 0 19 -8 26 -17 13 -17 15 -17 28 0
20 26 46 22 46 -8 l0 -25 -140 0 -140 0 0 25 c0 30 26 34 46 8z m216 -140 c34
-31 11 -93 -35 -93 -27 0 -57 28 -57 53 0 48 56 73 92 40z"/>
<path d="M256 81 c-10 -11 -25 -17 -34 -14 -10 4 -13 2 -8 -5 4 -7 13 -12 20
-12 15 0 52 38 44 45 -3 3 -13 -4 -22 -14z"/>
<path d="M50 165 c0 -8 9 -15 20 -15 11 0 20 7 20 15 0 8 -9 15 -20 15 -11 0
-20 -7 -20 -15z"/>
<path d="M110 165 c0 -8 9 -15 20 -15 11 0 20 7 20 15 0 8 -9 15 -20 15 -11 0
-20 -7 -20 -15z"/>
<path d="M170 165 c0 -8 9 -15 20 -15 11 0 20 7 20 15 0 8 -9 15 -20 15 -11 0
-20 -7 -20 -15z"/>
<path d="M230 165 c0 -8 9 -15 20 -15 11 0 20 7 20 15 0 8 -9 15 -20 15 -11 0
-20 -7 -20 -15z"/>
<path d="M52 123 c2 -10 10 -18 18 -18 8 0 16 8 18 18 2 12 -3 17 -18 17 -15
0 -20 -5 -18 -17z m28 -3 c0 -5 -4 -10 -10 -10 -5 0 -10 5 -10 10 0 6 5 10 10
10 6 0 10 -4 10 -10z"/>
<path d="M112 123 c2 -10 10 -18 18 -18 8 0 16 8 18 18 2 12 -3 17 -18 17 -15
0 -20 -5 -18 -17z m28 -3 c0 -5 -4 -10 -10 -10 -5 0 -10 5 -10 10 0 6 5 10 10
10 6 0 10 -4 10 -10z"/>
<path d="M50 75 c0 -8 9 -15 20 -15 11 0 20 7 20 15 0 8 -9 15 -20 15 -11 0
-20 -7 -20 -15z"/>
<path d="M110 75 c0 -8 9 -15 20 -15 11 0 20 7 20 15 0 8 -9 15 -20 15 -11 0
-20 -7 -20 -15z"/>
</g>
</svg>
