<?xml version="1.0" standalone="no"?>
<!DOCTYPE svg PUBLIC "-//W3C//DTD SVG 20010904//EN"
 "http://www.w3.org/TR/2001/REC-SVG-20010904/DTD/svg10.dtd">
<svg version="1.0" xmlns="http://www.w3.org/2000/svg"
 width="32.000000pt" height="32.000000pt" viewBox="0 0 32.000000 32.000000"
 preserveAspectRatio="xMidYMid meet">

<g transform="translate(0.000000,32.000000) scale(0.100000,-0.100000)"
fill="#000000" stroke="none">
<path d="M88 289 c-43 -22 -78 -81 -78 -129 0 -76 74 -150 150 -150 76 0 150
74 150 150 0 50 -35 107 -80 130 -49 25 -94 25 -142 -1z m65 -11 c4 -10 7 -10
14 0 12 16 73 -4 73 -24 0 -8 6 -14 14 -14 20 0 40 -61 24 -72 -11 -6 -11 -10
0 -16 16 -11 -4 -72 -24 -72 -8 0 -14 -6 -14 -14 0 -20 -61 -40 -72 -24 -6 11
-10 11 -16 0 -11 -16 -72 4 -72 24 0 8 -6 14 -14 14 -20 0 -40 61 -24 72 11 6
11 10 0 16 -16 11 4 72 24 72 8 0 14 6 14 14 0 8 12 19 28 24 37 14 40 14 45
0z"/>
<path d="M150 192 c0 -28 7 -45 25 -62 31 -29 46 -18 17 13 -13 14 -22 36 -22
55 0 18 -4 32 -10 32 -5 0 -10 -17 -10 -38z"/>
</g>
</svg>
