<?xml version="1.0" standalone="no"?>
<!DOCTYPE svg PUBLIC "-//W3C//DTD SVG 20010904//EN"
 "http://www.w3.org/TR/2001/REC-SVG-20010904/DTD/svg10.dtd">
<svg version="1.0" xmlns="http://www.w3.org/2000/svg"
 width="32.000000pt" height="32.000000pt" viewBox="0 0 32.000000 32.000000"
 preserveAspectRatio="xMidYMid meet">

<g transform="translate(0.000000,32.000000) scale(0.100000,-0.100000)"
fill="#000000" stroke="none">
<path d="M114 311 c-12 -5 -31 -22 -44 -38 -40 -51 -14 -144 71 -253 l19 -25
19 25 c50 63 84 133 89 179 4 42 1 52 -24 80 -31 35 -90 49 -130 32z m105 -37
c47 -39 43 -90 -11 -177 -24 -37 -45 -67 -48 -67 -3 0 -24 30 -48 67 -54 87
-58 138 -11 177 39 33 79 33 118 0z"/>
<path d="M115 236 c-30 -45 13 -98 66 -81 55 18 38 105 -21 105 -20 0 -35 -8
-45 -24z m76 -12 c17 -21 0 -49 -31 -49 -31 0 -48 28 -31 49 8 9 21 16 31 16
10 0 23 -7 31 -16z"/>
</g>
</svg>
