<?xml version="1.0" standalone="no"?>
<!DOCTYPE svg PUBLIC "-//W3C//DTD SVG 20010904//EN"
 "http://www.w3.org/TR/2001/REC-SVG-20010904/DTD/svg10.dtd">
<svg version="1.0" xmlns="http://www.w3.org/2000/svg"
 width="32.000000pt" height="32.000000pt" viewBox="0 0 32.000000 32.000000"
 preserveAspectRatio="xMidYMid meet">

<g transform="translate(0.000000,32.000000) scale(0.100000,-0.100000)"
fill="#000000" stroke="none">
<path d="M35 250 l-39 -40 39 -40 c35 -36 65 -51 65 -33 0 4 -12 20 -27 36
l-28 29 97 -4 c86 -3 100 -7 123 -28 27 -26 34 -75 14 -112 -13 -25 -5 -35 15
-18 25 20 30 74 11 114 -25 53 -58 66 -166 66 l-93 0 27 28 c15 15 27 31 27
35 0 18 -30 3 -65 -33z"/>
</g>
</svg>
