<svg width="90" height="90" viewBox="0 0 90 90" fill="none" xmlns="http://www.w3.org/2000/svg">
<path fill-rule="evenodd" clip-rule="evenodd" d="M81.4018 8.59844C82.3578 9.55445 82.7252 10.9511 82.3633 12.2538L63.6133 79.7538C63.2289 81.1377 62.0877 82.1805 60.6748 82.4389C59.2619 82.6973 57.8255 82.126 56.9761 80.9677L36.6923 53.3079L9.03251 33.0241C7.87423 32.1747 7.30289 30.7383 7.56131 29.3254C7.81973 27.9125 8.86251 26.7713 10.2465 26.3869L77.7464 7.6369C79.0491 7.27504 80.4457 7.64242 81.4018 8.59844ZM44.3017 51.0018L58.4549 70.3017L71.3215 23.982L44.3017 51.0018ZM66.0182 18.6787L38.9984 45.6985L19.6985 31.5453L66.0182 18.6787Z" fill="#6E27A3"/>
</svg>
